<svg width="125" height="120" viewBox="0 0 125 120" fill="none" xmlns="http://www.w3.org/2000/svg">
<path d="M73.248 15.8L72.96 21.08C71.36 21.144 70.016 21.432 68.928 21.944C67.904 22.392 67.136 23.256 66.624 24.536C66.112 25.752 65.792 27.64 65.664 30.2L63.648 68.696C63.584 70.424 63.456 72.024 63.264 73.496C63.136 74.968 63.008 76.12 62.88 76.952C63.968 76.888 65.216 76.824 66.624 76.76C68.032 76.696 69.152 76.664 69.984 76.664L69.696 83H44.448L44.64 77.72C46.432 77.656 47.84 77.368 48.864 76.856C49.888 76.28 50.624 75.32 51.072 73.976C51.52 72.568 51.808 70.648 51.936 68.216L52.8 51.992L23.712 52.376L22.848 68.696C22.784 70.424 22.656 72.024 22.464 73.496C22.336 74.968 22.208 76.12 22.08 76.952C23.168 76.888 24.416 76.824 25.824 76.76C27.232 76.696 28.352 76.664 29.184 76.664L28.896 83H3.552L3.84 77.72C5.632 77.656 7.008 77.368 7.968 76.856C8.992 76.28 9.728 75.32 10.176 73.976C10.624 72.568 10.912 70.648 11.04 68.216L13.056 29.912C13.184 28.312 13.312 26.776 13.44 25.304C13.632 23.832 13.792 22.68 13.92 21.848C12.832 21.912 11.584 21.976 10.176 22.04C8.768 22.04 7.648 22.072 6.816 22.136L7.104 15.8H32.352L32.064 21.08C30.464 21.144 29.152 21.432 28.128 21.944C27.104 22.392 26.336 23.256 25.824 24.536C25.312 25.816 24.992 27.704 24.864 30.2L24 45.848H53.088L53.952 29.912C54.08 28.312 54.208 26.776 54.336 25.304C54.464 23.832 54.592 22.68 54.72 21.848C53.696 21.912 52.448 21.976 50.976 22.04C49.568 22.04 48.448 22.072 47.616 22.136L47.904 15.8H73.248Z" fill="url(#paint0_linear_2002_136)"/>
<path d="M124.881 47.861L124.689 51.029C121.873 51.157 119.697 51.893 118.161 53.237C116.625 54.581 115.121 56.981 113.649 60.437C113.521 60.757 113.329 61.205 113.073 61.781C112.881 62.293 112.529 63.157 112.017 64.373C111.505 65.589 110.769 67.381 109.809 69.749C108.849 72.117 107.537 75.285 105.873 79.253C104.209 83.221 102.097 88.213 99.5365 94.229C97.0405 100.245 94.0005 107.541 90.4165 116.117H87.9205L69.1045 64.949C67.8885 61.685 67.0245 59.061 66.5125 57.077C66.0645 55.029 65.7765 53.301 65.6485 51.893C64.7525 51.957 63.8565 51.989 62.9605 51.989C62.0645 51.989 61.1685 52.021 60.2725 52.085L60.4645 47.861H82.3525L82.1605 51.125C78.8965 51.317 76.8805 52.309 76.1125 54.101C75.3445 55.829 75.5365 58.293 76.6885 61.493L84.5605 83.861C85.9685 87.445 87.2805 90.901 88.4965 94.229C89.7125 97.493 90.6725 100.213 91.3765 102.389H91.5685C92.4645 100.149 93.3285 98.005 94.1605 95.957C94.9925 93.909 95.9845 91.477 97.1365 88.661C99.3125 83.285 101.169 78.741 102.705 75.029C104.241 71.317 105.553 68.149 106.641 65.525C107.729 62.901 108.657 60.661 109.425 58.805C110.129 57.141 110.705 55.733 111.153 54.581C111.665 53.429 112.145 52.469 112.593 51.701C111.377 51.765 110.161 51.829 108.945 51.893C107.729 51.957 106.481 52.021 105.201 52.085L105.393 47.861H124.881Z" fill="url(#paint1_linear_2002_136)"/>
<defs>
<linearGradient id="paint0_linear_2002_136" x1="13.2047" y1="5.25982e-06" x2="46.1555" y2="3.47087" gradientUnits="userSpaceOnUse">
<stop stop-color="white"/>
<stop offset="1" stop-color="#C9C9C9"/>
</linearGradient>
<linearGradient id="paint1_linear_2002_136" x1="69.0398" y1="32.061" x2="96.5208" y2="34.467" gradientUnits="userSpaceOnUse">
<stop stop-color="white"/>
<stop offset="1" stop-color="#C9C9C9"/>
</linearGradient>
</defs>
</svg>
